<?xml version="1.0" encoding="UTF-8"?><svg xmlns="http://www.w3.org/2000/svg" width="343" height="343" viewBox="0 0 343 343" fill="none" version="1.2" baseProfile="tiny-ps"><title>logops</title><rect width="343" height="343" transform="matrix(1 0 0 -1 0 343)" fill="url(#paint0_linear_172_262)"></rect><path d="M182.777 129.525C180.868 126.455 182.117 122.396 185.432 120.897L198.578 114.953C200.933 113.888 203.435 116.076 202.68 118.54L197.091 136.783C195.831 140.895 190.304 141.635 188.041 137.994L182.777 129.525Z" fill="url(#paint1_linear_172_262)" fill-opacity="0.1"></path><path d="M160.657 129.611C162.566 126.54 161.318 122.482 158.003 120.983L144.857 115.04C142.502 113.975 140 116.163 140.755 118.627L146.343 136.87C147.602 140.982 153.129 141.722 155.392 138.081L160.657 129.611Z" fill="url(#paint2_linear_172_262)" fill-opacity="0.1"></path><g><path d="M171.815 196.009L165.669 196.593L122.289 203.362C118.138 204.009 115.087 199.559 117.188 195.921L167.197 109.316L168.171 107.894C168.45 107.487 168.765 107.107 169.114 106.759L170.049 105.823L171.818 104.072L171.815 196.009Z" fill="url(#paint3_linear_172_262)"></path><path d="M172.38 196.009L178.219 196.301L221.381 203.333C225.515 204.007 228.595 199.601 226.543 195.948L178.222 109.909L177.114 108.248C176.687 107.608 176.17 107.032 175.579 106.54L174.719 105.823L172.383 104.072L172.38 196.009Z" fill="url(#paint4_linear_172_262)"></path></g><defs><filter id="filter0_d_172_262" x="34.0062" y="25.572" width="275.69" height="264.353" filterUnits="userSpaceOnUse" color-interpolation-filters="sRGB"><feFlood flood-opacity="0" result="BackgroundImageFix"></feFlood><feColorMatrix in="SourceAlpha" type="matrix" values="0 0 0 0 0 0 0 0 0 0 0 0 0 0 0 0 0 0 127 0" result="hardAlpha"></feColorMatrix><feOffset dy="4"></feOffset><feGaussianBlur stdDeviation="41.25"></feGaussianBlur><feComposite in2="hardAlpha" operator="out"></feComposite><feColorMatrix type="matrix" values="0 0 0 0 0 0 0 0 0 0 0 0 0 0 0 0 0 0 0.25 0"></feColorMatrix><feBlend mode="normal" in2="BackgroundImageFix" result="effect1_dropShadow_172_262"></feBlend><feBlend mode="normal" in="SourceGraphic" in2="effect1_dropShadow_172_262" result="shape"></feBlend></filter><linearGradient id="paint0_linear_172_262" x1="317.172" y1="430.133" x2="189.958" y2="312.14" gradientUnits="userSpaceOnUse"><stop stop-color="#1588C1"></stop><stop offset="1" stop-color="#0D8C9F"></stop></linearGradient><linearGradient id="paint1_linear_172_262" x1="199.701" y1="129.911" x2="188.681" y2="143.883" gradientUnits="userSpaceOnUse"><stop stop-color="white"></stop><stop offset="1" stop-color="#AFE7ED"></stop></linearGradient><linearGradient id="paint2_linear_172_262" x1="143.733" y1="129.998" x2="154.752" y2="143.969" gradientUnits="userSpaceOnUse"><stop stop-color="white"></stop><stop offset="1" stop-color="#AFE7ED"></stop></linearGradient><linearGradient id="paint3_linear_172_262" x1="127.059" y1="191.218" x2="161.664" y2="145.066" gradientUnits="userSpaceOnUse"><stop stop-color="white"></stop><stop offset="1" stop-color="#B3F3F5"></stop></linearGradient><linearGradient id="paint4_linear_172_262" x1="177.267" y1="128.191" x2="219.402" y2="162.484" gradientUnits="userSpaceOnUse"><stop stop-color="#8EDBE5"></stop><stop offset="1" stop-color="#FEFEFE"></stop></linearGradient></defs></svg>